<?xml version="1.0" standalone="no"?><!DOCTYPE svg PUBLIC "-//W3C//DTD SVG 1.1//EN" "http://www.w3.org/Graphics/SVG/1.1/DTD/svg11.dtd"><svg t="1713946187886" class="icon" viewBox="0 0 1024 1024" version="1.1" xmlns="http://www.w3.org/2000/svg" p-id="11680" xmlns:xlink="http://www.w3.org/1999/xlink" width="200" height="200"><path d="M510.177936 0C229.580071 0 0 229.580071 0 510.177936s229.580071 510.177936 510.177936 510.177936 510.177936-229.580071 510.177936-510.177936S794.419929 0 510.177936 0z m284.241993 634.078292c0 36.441281-29.153025 65.594306-65.594306 65.594306h-145.765125V765.266904h32.797153c7.288256 0 10.932384 3.644128 14.576513 7.288256 3.644128 3.644128 3.644128 10.932384 0 18.220641-3.644128 3.644128-7.288256 7.288256-14.576513 7.288256h-193.13879c-7.288256 0-14.576512-7.288256-14.576512-14.576513s7.288256-18.220641 14.576512-18.22064h32.797153v-65.594306H291.530249c-36.441281 0-65.594306-29.153025-65.594306-65.594306v-291.530249c0-36.441281 29.153025-65.594306 65.594306-65.594306h437.295374c36.441281 0 65.594306 29.153025 65.594306 65.594306v291.530249z" fill="#323333" p-id="11681"></path><path d="M258.733096 634.078292c0 18.220641 14.576512 32.797153 32.797153 32.797153h437.295374c18.220641 0 32.797153-14.576512 32.797153-32.797153v-32.797153H258.733096v32.797153z" fill="#323333" p-id="11682"></path></svg>